<svg id="Layer_1" data-name="Layer 1" xmlns="http://www.w3.org/2000/svg" viewBox="0 0 18 36"><defs><style>.cls-1,.cls-2{fill:#fff;}.cls-1{opacity:0.54;isolation:isolate;}</style></defs><title>checkbox</title><path id="Shape" class="cls-1" d="M16,20V34H2V20Zm0-2H2a2,2,0,0,0-2,2V34a2,2,0,0,0,2,2H16a2,2,0,0,0,2-2V20a2,2,0,0,0-2-2Z"/><g id="checkbox"><path id="Shape-2" data-name="Shape" class="cls-2" d="M16,0H2A2,2,0,0,0,0,2V16a2,2,0,0,0,2,2H16a2,2,0,0,0,2-2V2a2,2,0,0,0-2-2ZM7,14,2,9.19,3.4,7.85,7,11.31,14.6,4,16,5.35,7,14Z"/></g></svg>